<mxfile host="app.diagrams.net" modified="2021-09-15T11:27:34.449Z" agent="5.0 (Windows NT 10.0; Win64; x64) AppleWebKit/537.36 (KHTML, like Gecko) Chrome/93.0.4577.63 Safari/537.36" etag="7LpC1hzMWUcrHJLYSBFa" version="14.9.3" type="github">
  <diagram id="tQt5TUde7FCO1kAQe6YN" name="Page-1">
    <mxGraphModel dx="1543" dy="847" grid="1" gridSize="10" guides="1" tooltips="1" connect="1" arrows="1" fold="1" page="1" pageScale="1" pageWidth="850" pageHeight="1100" math="0" shadow="0">
      <root>
        <mxCell id="0" />
        <mxCell id="1" parent="0" />
        <mxCell id="-ekqTFk-XhqVTXpIekPn-8" style="edgeStyle=orthogonalEdgeStyle;rounded=0;orthogonalLoop=1;jettySize=auto;html=1;entryX=0;entryY=0.5;entryDx=0;entryDy=0;exitX=0;exitY=0.5;exitDx=0;exitDy=0;" edge="1" parent="1" source="-ekqTFk-XhqVTXpIekPn-1" target="-ekqTFk-XhqVTXpIekPn-5">
          <mxGeometry relative="1" as="geometry">
            <Array as="points">
              <mxPoint x="70" y="120" />
              <mxPoint x="70" y="220" />
            </Array>
          </mxGeometry>
        </mxCell>
        <mxCell id="-ekqTFk-XhqVTXpIekPn-1" value="&lt;font style=&quot;font-size: 18px&quot;&gt;Modern Work&lt;/font&gt;" style="rounded=0;whiteSpace=wrap;html=1;" vertex="1" parent="1">
          <mxGeometry x="90" y="90" width="210" height="60" as="geometry" />
        </mxCell>
        <mxCell id="-ekqTFk-XhqVTXpIekPn-2" value="&lt;font style=&quot;font-size: 18px&quot;&gt;Security&lt;/font&gt;" style="rounded=0;whiteSpace=wrap;html=1;" vertex="1" parent="1">
          <mxGeometry x="450" y="90" width="210" height="60" as="geometry" />
        </mxCell>
        <mxCell id="-ekqTFk-XhqVTXpIekPn-5" value="Performance" style="rounded=1;whiteSpace=wrap;html=1;fontSize=18;" vertex="1" parent="1">
          <mxGeometry x="130" y="190" width="170" height="60" as="geometry" />
        </mxCell>
        <mxCell id="-ekqTFk-XhqVTXpIekPn-6" value="Skilling" style="rounded=1;whiteSpace=wrap;html=1;fontSize=18;" vertex="1" parent="1">
          <mxGeometry x="130" y="350" width="170" height="60" as="geometry" />
        </mxCell>
        <mxCell id="-ekqTFk-XhqVTXpIekPn-7" value="Customer Success" style="rounded=1;whiteSpace=wrap;html=1;fontSize=18;" vertex="1" parent="1">
          <mxGeometry x="130" y="520" width="170" height="60" as="geometry" />
        </mxCell>
        <mxCell id="-ekqTFk-XhqVTXpIekPn-10" style="edgeStyle=orthogonalEdgeStyle;rounded=0;orthogonalLoop=1;jettySize=auto;html=1;entryX=0;entryY=0.5;entryDx=0;entryDy=0;exitX=0;exitY=0.5;exitDx=0;exitDy=0;" edge="1" parent="1" target="-ekqTFk-XhqVTXpIekPn-6">
          <mxGeometry relative="1" as="geometry">
            <mxPoint x="100" y="130" as="sourcePoint" />
            <mxPoint x="140" y="230" as="targetPoint" />
            <Array as="points">
              <mxPoint x="90" y="130" />
              <mxPoint x="90" y="120" />
              <mxPoint x="70" y="120" />
              <mxPoint x="70" y="380" />
            </Array>
          </mxGeometry>
        </mxCell>
        <mxCell id="-ekqTFk-XhqVTXpIekPn-11" style="edgeStyle=orthogonalEdgeStyle;rounded=0;orthogonalLoop=1;jettySize=auto;html=1;exitX=0;exitY=0.5;exitDx=0;exitDy=0;" edge="1" parent="1">
          <mxGeometry relative="1" as="geometry">
            <mxPoint x="100" y="130" as="sourcePoint" />
            <mxPoint x="130" y="540" as="targetPoint" />
            <Array as="points">
              <mxPoint x="90" y="130" />
              <mxPoint x="90" y="120" />
              <mxPoint x="70" y="120" />
              <mxPoint x="70" y="540" />
              <mxPoint x="130" y="540" />
            </Array>
          </mxGeometry>
        </mxCell>
        <mxCell id="-ekqTFk-XhqVTXpIekPn-13" value="Net Customer Adds - 20" style="text;html=1;strokeColor=none;fillColor=none;align=left;verticalAlign=middle;whiteSpace=wrap;rounded=0;fontSize=18;fontStyle=1" vertex="1" parent="1">
          <mxGeometry x="130" y="270" width="250" height="20" as="geometry" />
        </mxCell>
        <mxCell id="-ekqTFk-XhqVTXpIekPn-15" value="Intermediate Certification - 10" style="text;html=1;strokeColor=none;fillColor=none;align=left;verticalAlign=middle;whiteSpace=wrap;rounded=0;fontSize=18;fontStyle=1" vertex="1" parent="1">
          <mxGeometry x="130" y="420" width="390" height="20" as="geometry" />
        </mxCell>
        <mxCell id="-ekqTFk-XhqVTXpIekPn-16" value="Advanced Certifications - 15" style="text;html=1;strokeColor=none;fillColor=none;align=left;verticalAlign=middle;whiteSpace=wrap;rounded=0;fontSize=18;fontStyle=1" vertex="1" parent="1">
          <mxGeometry x="130" y="470" width="260" height="20" as="geometry" />
        </mxCell>
        <mxCell id="-ekqTFk-XhqVTXpIekPn-22" value="Usage Growth - 30" style="text;html=1;strokeColor=none;fillColor=none;align=left;verticalAlign=middle;whiteSpace=wrap;rounded=0;fontSize=18;fontStyle=1" vertex="1" parent="1">
          <mxGeometry x="130" y="610" width="280" height="20" as="geometry" />
        </mxCell>
        <mxCell id="-ekqTFk-XhqVTXpIekPn-23" value="Deployments - 25" style="text;html=1;strokeColor=none;fillColor=none;align=left;verticalAlign=middle;whiteSpace=wrap;rounded=0;fontSize=18;fontStyle=1" vertex="1" parent="1">
          <mxGeometry x="130" y="660" width="280" height="20" as="geometry" />
        </mxCell>
        <mxCell id="-ekqTFk-XhqVTXpIekPn-25" value="Performance" style="rounded=1;whiteSpace=wrap;html=1;fontSize=18;" vertex="1" parent="1">
          <mxGeometry x="479.94" y="180" width="170" height="60" as="geometry" />
        </mxCell>
        <mxCell id="-ekqTFk-XhqVTXpIekPn-26" value="Capability / Skilling" style="rounded=1;whiteSpace=wrap;html=1;fontSize=18;" vertex="1" parent="1">
          <mxGeometry x="479.94" y="340" width="170" height="60" as="geometry" />
        </mxCell>
        <mxCell id="-ekqTFk-XhqVTXpIekPn-27" value="Customer Success" style="rounded=1;whiteSpace=wrap;html=1;fontSize=18;" vertex="1" parent="1">
          <mxGeometry x="479.94" y="510" width="170" height="60" as="geometry" />
        </mxCell>
        <mxCell id="-ekqTFk-XhqVTXpIekPn-30" value="M365 Net Customer Adds - 10" style="text;html=1;strokeColor=none;fillColor=none;align=left;verticalAlign=middle;whiteSpace=wrap;rounded=0;fontSize=18;fontStyle=1" vertex="1" parent="1">
          <mxGeometry x="479.94" y="260" width="270.06" height="20" as="geometry" />
        </mxCell>
        <mxCell id="-ekqTFk-XhqVTXpIekPn-31" value="Intermediate Certification - 40" style="text;html=1;strokeColor=none;fillColor=none;align=left;verticalAlign=middle;whiteSpace=wrap;rounded=0;fontSize=18;fontStyle=1" vertex="1" parent="1">
          <mxGeometry x="479.94" y="410" width="390" height="20" as="geometry" />
        </mxCell>
        <mxCell id="-ekqTFk-XhqVTXpIekPn-33" value="Deployments - M365 - 10" style="text;html=1;strokeColor=none;fillColor=none;align=left;verticalAlign=middle;whiteSpace=wrap;rounded=0;fontSize=18;fontStyle=1" vertex="1" parent="1">
          <mxGeometry x="479.94" y="600" width="280" height="20" as="geometry" />
        </mxCell>
        <mxCell id="-ekqTFk-XhqVTXpIekPn-34" value="Deployments&amp;nbsp; Azure - 10" style="text;html=1;strokeColor=none;fillColor=none;align=left;verticalAlign=middle;whiteSpace=wrap;rounded=0;fontSize=18;fontStyle=1" vertex="1" parent="1">
          <mxGeometry x="479.94" y="650" width="280" height="20" as="geometry" />
        </mxCell>
        <mxCell id="-ekqTFk-XhqVTXpIekPn-35" value="Azure Net Customer Adds - 10" style="text;html=1;strokeColor=none;fillColor=none;align=left;verticalAlign=middle;whiteSpace=wrap;rounded=0;fontSize=18;fontStyle=1" vertex="1" parent="1">
          <mxGeometry x="479.94" y="290" width="270.06" height="20" as="geometry" />
        </mxCell>
        <mxCell id="-ekqTFk-XhqVTXpIekPn-36" value="Usage Growth - M365 - 10" style="text;html=1;strokeColor=none;fillColor=none;align=left;verticalAlign=middle;whiteSpace=wrap;rounded=0;fontSize=18;fontStyle=1" vertex="1" parent="1">
          <mxGeometry x="479.94" y="690" width="280" height="20" as="geometry" />
        </mxCell>
        <mxCell id="-ekqTFk-XhqVTXpIekPn-37" value="Usage Growth - Azure Security - 10" style="text;html=1;strokeColor=none;fillColor=none;align=left;verticalAlign=middle;whiteSpace=wrap;rounded=0;fontSize=18;fontStyle=1" vertex="1" parent="1">
          <mxGeometry x="479.94" y="730" width="280" height="20" as="geometry" />
        </mxCell>
        <mxCell id="-ekqTFk-XhqVTXpIekPn-40" value="&lt;font style=&quot;font-size: 18px&quot;&gt;Modern Work&lt;/font&gt;" style="rounded=0;whiteSpace=wrap;html=1;" vertex="1" parent="1">
          <mxGeometry x="90" y="90" width="210" height="60" as="geometry" />
        </mxCell>
        <mxCell id="-ekqTFk-XhqVTXpIekPn-41" style="edgeStyle=orthogonalEdgeStyle;rounded=0;orthogonalLoop=1;jettySize=auto;html=1;entryX=0;entryY=0.5;entryDx=0;entryDy=0;exitX=0;exitY=0.5;exitDx=0;exitDy=0;" edge="1" source="-ekqTFk-XhqVTXpIekPn-40" parent="1">
          <mxGeometry relative="1" as="geometry">
            <mxPoint x="130" y="220" as="targetPoint" />
            <Array as="points">
              <mxPoint x="70" y="120" />
              <mxPoint x="70" y="220" />
            </Array>
          </mxGeometry>
        </mxCell>
        <mxCell id="-ekqTFk-XhqVTXpIekPn-42" style="edgeStyle=orthogonalEdgeStyle;rounded=0;orthogonalLoop=1;jettySize=auto;html=1;entryX=0;entryY=0.5;entryDx=0;entryDy=0;exitX=0;exitY=0.5;exitDx=0;exitDy=0;" edge="1" parent="1">
          <mxGeometry relative="1" as="geometry">
            <mxPoint x="100" y="130" as="sourcePoint" />
            <mxPoint x="130" y="380" as="targetPoint" />
            <Array as="points">
              <mxPoint x="90" y="130" />
              <mxPoint x="90" y="120" />
              <mxPoint x="70" y="120" />
              <mxPoint x="70" y="380" />
            </Array>
          </mxGeometry>
        </mxCell>
        <mxCell id="-ekqTFk-XhqVTXpIekPn-43" style="edgeStyle=orthogonalEdgeStyle;rounded=0;orthogonalLoop=1;jettySize=auto;html=1;exitX=0;exitY=0.5;exitDx=0;exitDy=0;" edge="1" parent="1">
          <mxGeometry relative="1" as="geometry">
            <mxPoint x="100" y="130" as="sourcePoint" />
            <mxPoint x="130" y="540" as="targetPoint" />
            <Array as="points">
              <mxPoint x="90" y="130" />
              <mxPoint x="90" y="120" />
              <mxPoint x="70" y="120" />
              <mxPoint x="70" y="540" />
              <mxPoint x="130" y="540" />
            </Array>
          </mxGeometry>
        </mxCell>
        <mxCell id="-ekqTFk-XhqVTXpIekPn-44" value="Performance" style="rounded=1;whiteSpace=wrap;html=1;fontSize=18;" vertex="1" parent="1">
          <mxGeometry x="849.94" y="190" width="170" height="60" as="geometry" />
        </mxCell>
        <mxCell id="-ekqTFk-XhqVTXpIekPn-45" value="Skilling" style="rounded=1;whiteSpace=wrap;html=1;fontSize=18;" vertex="1" parent="1">
          <mxGeometry x="849.94" y="350" width="170" height="60" as="geometry" />
        </mxCell>
        <mxCell id="-ekqTFk-XhqVTXpIekPn-46" value="Customer Success" style="rounded=1;whiteSpace=wrap;html=1;fontSize=18;" vertex="1" parent="1">
          <mxGeometry x="849.94" y="520" width="170" height="60" as="geometry" />
        </mxCell>
        <mxCell id="-ekqTFk-XhqVTXpIekPn-47" value="Net Customer Adds - 15" style="text;html=1;strokeColor=none;fillColor=none;align=left;verticalAlign=middle;whiteSpace=wrap;rounded=0;fontSize=18;fontStyle=1" vertex="1" parent="1">
          <mxGeometry x="849.94" y="270" width="250" height="20" as="geometry" />
        </mxCell>
        <mxCell id="-ekqTFk-XhqVTXpIekPn-48" value="Intermediate Certification - 20" style="text;html=1;strokeColor=none;fillColor=none;align=left;verticalAlign=middle;whiteSpace=wrap;rounded=0;fontSize=18;fontStyle=1" vertex="1" parent="1">
          <mxGeometry x="849.94" y="420" width="390" height="20" as="geometry" />
        </mxCell>
        <mxCell id="-ekqTFk-XhqVTXpIekPn-49" value="Advanced Certifications - 15" style="text;html=1;strokeColor=none;fillColor=none;align=left;verticalAlign=middle;whiteSpace=wrap;rounded=0;fontSize=18;fontStyle=1" vertex="1" parent="1">
          <mxGeometry x="849.94" y="470" width="260" height="20" as="geometry" />
        </mxCell>
        <mxCell id="-ekqTFk-XhqVTXpIekPn-50" value="Usage Growth - 30" style="text;html=1;strokeColor=none;fillColor=none;align=left;verticalAlign=middle;whiteSpace=wrap;rounded=0;fontSize=18;fontStyle=1" vertex="1" parent="1">
          <mxGeometry x="849.94" y="610" width="280" height="20" as="geometry" />
        </mxCell>
        <mxCell id="-ekqTFk-XhqVTXpIekPn-51" value="Deployments - 20" style="text;html=1;strokeColor=none;fillColor=none;align=left;verticalAlign=middle;whiteSpace=wrap;rounded=0;fontSize=18;fontStyle=1" vertex="1" parent="1">
          <mxGeometry x="849.94" y="660" width="280" height="20" as="geometry" />
        </mxCell>
        <mxCell id="-ekqTFk-XhqVTXpIekPn-52" value="&lt;font style=&quot;font-size: 18px&quot;&gt;BizApps&lt;/font&gt;" style="rounded=0;whiteSpace=wrap;html=1;" vertex="1" parent="1">
          <mxGeometry x="809.94" y="90" width="210" height="60" as="geometry" />
        </mxCell>
        <mxCell id="-ekqTFk-XhqVTXpIekPn-56" value="Performance" style="rounded=1;whiteSpace=wrap;html=1;fontSize=18;" vertex="1" parent="1">
          <mxGeometry x="1210" y="190" width="170" height="60" as="geometry" />
        </mxCell>
        <mxCell id="-ekqTFk-XhqVTXpIekPn-57" value="Skilling" style="rounded=1;whiteSpace=wrap;html=1;fontSize=18;" vertex="1" parent="1">
          <mxGeometry x="1210" y="350" width="170" height="60" as="geometry" />
        </mxCell>
        <mxCell id="-ekqTFk-XhqVTXpIekPn-58" value="Customer Success" style="rounded=1;whiteSpace=wrap;html=1;fontSize=18;" vertex="1" parent="1">
          <mxGeometry x="1210" y="520" width="170" height="60" as="geometry" />
        </mxCell>
        <mxCell id="-ekqTFk-XhqVTXpIekPn-59" value="Net Customer Adds - 30" style="text;html=1;strokeColor=none;fillColor=none;align=left;verticalAlign=middle;whiteSpace=wrap;rounded=0;fontSize=18;fontStyle=1" vertex="1" parent="1">
          <mxGeometry x="1210" y="270" width="250" height="20" as="geometry" />
        </mxCell>
        <mxCell id="-ekqTFk-XhqVTXpIekPn-60" value="Intermediate Certification - 10" style="text;html=1;strokeColor=none;fillColor=none;align=left;verticalAlign=middle;whiteSpace=wrap;rounded=0;fontSize=18;fontStyle=1" vertex="1" parent="1">
          <mxGeometry x="1210" y="420" width="390" height="20" as="geometry" />
        </mxCell>
        <mxCell id="-ekqTFk-XhqVTXpIekPn-61" value="Advanced Certifications - 20" style="text;html=1;strokeColor=none;fillColor=none;align=left;verticalAlign=middle;whiteSpace=wrap;rounded=0;fontSize=18;fontStyle=1" vertex="1" parent="1">
          <mxGeometry x="1210" y="470" width="260" height="20" as="geometry" />
        </mxCell>
        <mxCell id="-ekqTFk-XhqVTXpIekPn-62" value="Usage Growth - 20" style="text;html=1;strokeColor=none;fillColor=none;align=left;verticalAlign=middle;whiteSpace=wrap;rounded=0;fontSize=18;fontStyle=1" vertex="1" parent="1">
          <mxGeometry x="1210" y="610" width="280" height="20" as="geometry" />
        </mxCell>
        <mxCell id="-ekqTFk-XhqVTXpIekPn-63" value="Deployments - 20" style="text;html=1;strokeColor=none;fillColor=none;align=left;verticalAlign=middle;whiteSpace=wrap;rounded=0;fontSize=18;fontStyle=1" vertex="1" parent="1">
          <mxGeometry x="1210" y="660" width="280" height="20" as="geometry" />
        </mxCell>
        <mxCell id="-ekqTFk-XhqVTXpIekPn-64" value="&lt;font style=&quot;font-size: 18px&quot;&gt;Azure&lt;/font&gt;" style="rounded=0;whiteSpace=wrap;html=1;" vertex="1" parent="1">
          <mxGeometry x="1170" y="90" width="210" height="60" as="geometry" />
        </mxCell>
        <mxCell id="-ekqTFk-XhqVTXpIekPn-65" style="edgeStyle=orthogonalEdgeStyle;rounded=0;orthogonalLoop=1;jettySize=auto;html=1;entryX=0;entryY=0.5;entryDx=0;entryDy=0;exitX=0;exitY=0.5;exitDx=0;exitDy=0;" edge="1" parent="1" source="-ekqTFk-XhqVTXpIekPn-64">
          <mxGeometry relative="1" as="geometry">
            <mxPoint x="1210" y="220" as="targetPoint" />
            <Array as="points">
              <mxPoint x="1150" y="120" />
              <mxPoint x="1150" y="220" />
            </Array>
          </mxGeometry>
        </mxCell>
        <mxCell id="-ekqTFk-XhqVTXpIekPn-69" style="edgeStyle=orthogonalEdgeStyle;rounded=0;orthogonalLoop=1;jettySize=auto;html=1;entryX=0;entryY=0.5;entryDx=0;entryDy=0;exitX=0;exitY=0.5;exitDx=0;exitDy=0;" edge="1" parent="1" target="-ekqTFk-XhqVTXpIekPn-57">
          <mxGeometry relative="1" as="geometry">
            <mxPoint x="1210" y="219.9999999999999" as="targetPoint" />
            <Array as="points">
              <mxPoint x="1150" y="120" />
              <mxPoint x="1150" y="380" />
            </Array>
            <mxPoint x="1170" y="119.99999999999989" as="sourcePoint" />
          </mxGeometry>
        </mxCell>
        <mxCell id="-ekqTFk-XhqVTXpIekPn-70" style="edgeStyle=orthogonalEdgeStyle;rounded=0;orthogonalLoop=1;jettySize=auto;html=1;entryX=0;entryY=0.5;entryDx=0;entryDy=0;exitX=0;exitY=0.5;exitDx=0;exitDy=0;" edge="1" parent="1" target="-ekqTFk-XhqVTXpIekPn-58">
          <mxGeometry relative="1" as="geometry">
            <mxPoint x="1210" y="380" as="targetPoint" />
            <Array as="points">
              <mxPoint x="1150" y="120" />
              <mxPoint x="1150" y="550" />
            </Array>
            <mxPoint x="1170" y="119.99999999999989" as="sourcePoint" />
          </mxGeometry>
        </mxCell>
        <mxCell id="-ekqTFk-XhqVTXpIekPn-71" style="edgeStyle=orthogonalEdgeStyle;rounded=0;orthogonalLoop=1;jettySize=auto;html=1;entryX=0;entryY=0.5;entryDx=0;entryDy=0;exitX=0;exitY=0.5;exitDx=0;exitDy=0;" edge="1" parent="1">
          <mxGeometry relative="1" as="geometry">
            <mxPoint x="850" y="219.9999999999999" as="targetPoint" />
            <Array as="points">
              <mxPoint x="790" y="120" />
              <mxPoint x="790" y="220" />
            </Array>
            <mxPoint x="810" y="119.99999999999989" as="sourcePoint" />
          </mxGeometry>
        </mxCell>
        <mxCell id="-ekqTFk-XhqVTXpIekPn-72" style="edgeStyle=orthogonalEdgeStyle;rounded=0;orthogonalLoop=1;jettySize=auto;html=1;entryX=0;entryY=0.5;entryDx=0;entryDy=0;exitX=0;exitY=0.5;exitDx=0;exitDy=0;" edge="1" parent="1">
          <mxGeometry relative="1" as="geometry">
            <mxPoint x="850" y="380" as="targetPoint" />
            <Array as="points">
              <mxPoint x="790" y="120" />
              <mxPoint x="790" y="380" />
            </Array>
            <mxPoint x="810" y="119.99999999999989" as="sourcePoint" />
          </mxGeometry>
        </mxCell>
        <mxCell id="-ekqTFk-XhqVTXpIekPn-73" style="edgeStyle=orthogonalEdgeStyle;rounded=0;orthogonalLoop=1;jettySize=auto;html=1;entryX=0;entryY=0.5;entryDx=0;entryDy=0;exitX=0;exitY=0.5;exitDx=0;exitDy=0;" edge="1" parent="1">
          <mxGeometry relative="1" as="geometry">
            <mxPoint x="850" y="550" as="targetPoint" />
            <Array as="points">
              <mxPoint x="790" y="120" />
              <mxPoint x="790" y="550" />
            </Array>
            <mxPoint x="810" y="119.99999999999989" as="sourcePoint" />
          </mxGeometry>
        </mxCell>
        <mxCell id="-ekqTFk-XhqVTXpIekPn-75" style="edgeStyle=orthogonalEdgeStyle;rounded=0;orthogonalLoop=1;jettySize=auto;html=1;entryX=0;entryY=0.5;entryDx=0;entryDy=0;exitX=0;exitY=0.5;exitDx=0;exitDy=0;" edge="1" parent="1">
          <mxGeometry relative="1" as="geometry">
            <mxPoint x="485" y="209.9999999999999" as="targetPoint" />
            <Array as="points">
              <mxPoint x="425" y="110" />
              <mxPoint x="425" y="210" />
            </Array>
            <mxPoint x="445" y="109.99999999999989" as="sourcePoint" />
          </mxGeometry>
        </mxCell>
        <mxCell id="-ekqTFk-XhqVTXpIekPn-76" style="edgeStyle=orthogonalEdgeStyle;rounded=0;orthogonalLoop=1;jettySize=auto;html=1;entryX=0;entryY=0.5;entryDx=0;entryDy=0;exitX=0;exitY=0.5;exitDx=0;exitDy=0;" edge="1" parent="1">
          <mxGeometry relative="1" as="geometry">
            <mxPoint x="485" y="370" as="targetPoint" />
            <Array as="points">
              <mxPoint x="425" y="110" />
              <mxPoint x="425" y="370" />
            </Array>
            <mxPoint x="445" y="109.99999999999989" as="sourcePoint" />
          </mxGeometry>
        </mxCell>
        <mxCell id="-ekqTFk-XhqVTXpIekPn-77" style="edgeStyle=orthogonalEdgeStyle;rounded=0;orthogonalLoop=1;jettySize=auto;html=1;entryX=0;entryY=0.5;entryDx=0;entryDy=0;exitX=0;exitY=0.5;exitDx=0;exitDy=0;" edge="1" parent="1">
          <mxGeometry relative="1" as="geometry">
            <mxPoint x="485" y="540" as="targetPoint" />
            <Array as="points">
              <mxPoint x="425" y="110" />
              <mxPoint x="425" y="540" />
            </Array>
            <mxPoint x="445" y="109.99999999999989" as="sourcePoint" />
          </mxGeometry>
        </mxCell>
      </root>
    </mxGraphModel>
  </diagram>
</mxfile>
